<svg height="512" viewBox="0 0 64 64" width="512" xmlns="http://www.w3.org/2000/svg"><path d="m46 25.49a36.072 36.072 0 0 0 -5-.95 71.74 71.74 0 0 0 -9-.54c-1.37 0-2.71.03-3.99.1-1.41.07-2.75.18-4.01.32a42.176 42.176 0 0 0 -5.15.85c-3 .72-4.85 1.68-4.85 2.73 0 2.21 8.06 4 18 4s18-1.79 18-4c0-.95-1.5-1.82-4-2.51z" fill="#ff9811"/><circle cx="59" cy="5" fill="#ff6243" r="2"/><circle cx="59" cy="17" fill="#ff6243" r="2"/><path d="m50 31a4 4 0 0 1 0 8h-.03c.02-.33.03-.67.03-1z" fill="#ffb655"/><path d="m50 31v7c0 .33-.01.67-.03 1a17.99 17.99 0 0 1 -27.97 13.96 17.722 17.722 0 0 1 -2.73-2.23 17.987 17.987 0 0 1 -5.24-11.73c-.02-.33-.03-.67-.03-1v-10c0 2.21 8.06 4 18 4s18-1.79 18-4z" fill="#ffc477"/><path d="m51 14v-3l-4-1v-2l-1-1h-3l-2 2v9 6.54.46l2 2h2l1-1.51 1-1.49h2l1-1v-3l3-1v-4z" fill="#00ccb3"/><path d="m42 52.96v8.04h-20v-8.04a17.967 17.967 0 0 0 20 0z" fill="#ffb655"/><circle cx="32" cy="5" fill="#ff6243" r="2"/><path d="m22 7h-3l-1 1v2l-4 1v3l-2 1v4l3 1v3l1 1h2l.85 1.27 1.15 1.73h2l2-2v-.58-4.42-11z" fill="#00ccb3"/><path d="m14.03 39h-.03a4 4 0 0 1 0-8v7c0 .33.01.67.03 1z" fill="#ffb655"/><circle cx="5" cy="5" fill="#ff6243" r="2"/><circle cx="5" cy="17" fill="#ff6243" r="2"/><path d="m42 52.96v2a17.967 17.967 0 0 1 -20 0v-2a17.967 17.967 0 0 0 20 0z" fill="#ffa733"/><path d="m32 46a3 3 0 0 0 3-3v-6h-2v6a1 1 0 0 1 -2 0v-6h-2v6a3 3 0 0 0 3 3z"/><path d="m41 35a3 3 0 0 0 -3 3h2a1 1 0 0 1 2 0h2a3 3 0 0 0 -3-3z"/><path d="m23 35a3 3 0 0 0 -3 3h2a1 1 0 0 1 2 0h2a3 3 0 0 0 -3-3z"/><path d="m51 30.1v-2.1c0-1.209-1.083-2.2-3.263-3h1.263a1 1 0 0 0 .707-.293l1-1a1 1 0 0 0 .293-.707v-2.279l2.316-.772a1 1 0 0 0 .684-.949v-4a1 1 0 0 0 -.553-.895l-1.447-.723v-2.382a1 1 0 0 0 -.757-.97l-3.243-.811v-1.219a1 1 0 0 0 -.293-.707l-1-1a1 1 0 0 0 -.707-.293h-3a1 1 0 0 0 -.707.293l-2 2a1 1 0 0 0 -.293.707v8h-2a1 1 0 0 0 -.707.293l-2 2a1 1 0 0 0 -.293.707v2h2v-1.586l1.414-1.414h1.586v4.425c-2.2-.241-4.58-.38-7-.41v-9.6l2.414-2.415h2.586v-2h-3a1 1 0 0 0 -.707.293l-1.293 1.293v-2.77a3 3 0 1 0 -2 0v6.84l-1.363-1.363a1 1 0 0 0 -.707-.293h-2.93v2h2.516l2.484 2.484v5.528c-.693.008-1.362.024-2 .048v-1.06a1 1 0 0 0 -.293-.707l-2-2a1 1 0 0 0 -.707-.293h-1v-10a1 1 0 0 0 -.293-.707l-2-2a1 1 0 0 0 -.707-.293h-3a1 1 0 0 0 -.707.293l-1 1a1 1 0 0 0 -.293.707v1.219l-3.243.811a1 1 0 0 0 -.757.97v2.382l-1.447.723a1 1 0 0 0 -.553.895v4a1 1 0 0 0 .684.949l2.316.772v2.279a1 1 0 0 0 .293.707l1 1a1 1 0 0 0 .707.293h.253c-2.179.8-3.253 1.793-3.253 3v2.1a4.995 4.995 0 0 0 .1 9.808 19 19 0 0 0 7.9 13.555v7.537a1 1 0 0 0 1 1h20a1 1 0 0 0 1-1v-7.537a19 19 0 0 0 7.9-13.554 4.995 4.995 0 0 0 .1-9.809zm-9-20.686 1.414-1.414h2.172l.414.414v1.172l-1.707 1.707a1 1 0 0 0 -.293.707v2h2v-1.586l1.307-1.307 2.693.674v1.219h-1v2h1.764l1.236.618v2.661l-1.73.577-1.27-1.27v-.586h-2v1a1 1 0 0 0 .293.707l1.707 1.707v2.172l-.414.414h-1.586a1 1 0 0 0 -.832.445l-1.703 2.555h-1.051l-1.414-1.414zm-10-5.414a1 1 0 1 1 -1 1 1 1 0 0 1 1-1zm-6.414 17 1.414 1.414v.749c-.678.043-1.343.095-2 .157v-2.32zm-9.586-.586 1.707-1.707a1 1 0 0 0 .293-.707v-1h-2v.586l-1.27 1.27-1.73-.577v-2.661l1.236-.618h1.764v-2h-1v-1.219l2.693-.674 1.307 1.307v1.586h2v-2a1 1 0 0 0 -.293-.707l-1.707-1.707v-1.172l.414-.414h2.172l1.414 1.414v15.172l-1.414 1.414h-1.051l-1.7-2.555a1 1 0 0 0 -.835-.445h-1.586l-.414-.414zm2.411 6.006.757 1.135a1 1 0 0 0 .832.445h2a1 1 0 0 0 .707-.293l2-2a.984.984 0 0 0 .226-.372c1.015-.1 2.053-.183 3.121-.236.922-.051 1.909-.075 2.946-.087v3.988h2v-3.985c2.472.032 4.9.179 7.121.434a.994.994 0 0 0 .172.258l2 2a1 1 0 0 0 .707.293h2a1 1 0 0 0 .832-.445l.6-.9c2.273.72 2.56 1.324 2.572 1.324-.304 1.058-6.404 3.021-17.004 3.021s-16.69-1.959-17-2.975v-.008c.068-.209.859-.905 3.411-1.597zm-7.411 8.58a3 3 0 0 1 2-2.816v5.632a3 3 0 0 1 -2-2.816zm30 25h-18v-5.273a18.954 18.954 0 0 0 18 0zm-9-5a17.019 17.019 0 0 1 -17-17v-7.542c3.7 1.952 11.718 2.542 17 2.542s13.3-.59 17-2.542v7.542a17.019 17.019 0 0 1 -17 17zm19-17.184v-5.632a2.982 2.982 0 0 1 0 5.632z"/><path d="m32 49c-2.71 0-5-1.374-5-3h-2c0 2.8 3.075 5 7 5s7-2.2 7-5h-2c0 1.626-2.29 3-5 3z"/><path d="m59 8a3 3 0 1 0 -3-3 3 3 0 0 0 3 3zm0-4a1 1 0 1 1 -1 1 1 1 0 0 1 1-1z"/><path d="m59 14a3 3 0 1 0 3 3 3 3 0 0 0 -3-3zm0 4a1 1 0 1 1 1-1 1 1 0 0 1 -1 1z"/><path d="m52.414 6h1.586v-2h-2a1 1 0 0 0 -.707.293l-3 3 1.414 1.414z"/><path d="m5 2a3 3 0 1 0 3 3 3 3 0 0 0 -3-3zm0 4a1 1 0 1 1 1-1 1 1 0 0 1 -1 1z"/><path d="m5 14a3 3 0 1 0 3 3 3 3 0 0 0 -3-3zm0 4a1 1 0 1 1 1-1 1 1 0 0 1 -1 1z"/><path d="m14.293 8.707 1.414-1.414-3-3a1 1 0 0 0 -.707-.293h-2v2h1.586z"/><path d="m20.293 22.707 1.414-1.414-.707-.707v-2.586h-2v3a1 1 0 0 0 .293.707z"/><path d="m45.707 21.707a1 1 0 0 0 .293-.707v-3h-2v2.586l-.707.707 1.414 1.414z"/></svg>