<svg height="512pt" viewBox="-42 0 512 512" width="512pt" xmlns="http://www.w3.org/2000/svg"><path d="m272.816406 95.433594c0-3.699219-.355468-7.3125-1.003906-10.820313l27.730469-16.011719-19.742188-34.195312-27.738281 16.015625c-5.472656-4.683594-11.804688-8.386719-18.734375-10.835937v-32.011719h-39.488281v32.011719c-6.925782 2.449218-13.257813 6.152343-18.730469 10.835937l-27.742187-16.015625-19.742188 34.195312 27.734375 16.011719c-.648437 3.507813-1.003906 7.121094-1.003906 10.820313 0 3.695312.355469 7.308594 1.003906 10.816406l-27.734375 16.011719 19.742188 34.195312 27.742187-16.015625c5.472656 4.683594 11.800781 8.386719 18.730469 10.835938v32.011718h39.488281v-32.011718c6.929687-2.449219 13.261719-6.152344 18.734375-10.835938l27.738281 16.015625 19.742188-34.195312-27.730469-16.011719c.648438-3.507812 1.003906-7.121094 1.003906-10.816406zm-59.230468 19.742187c-10.90625 0-19.742188-8.839843-19.742188-19.742187 0-10.90625 8.835938-19.746094 19.742188-19.746094 10.902343 0 19.742187 8.839844 19.742187 19.746094 0 10.902344-8.839844 19.742187-19.742187 19.742187zm0 0" fill="#c9d2e3"/><path d="m272.816406 95.433594c0-3.699219-.355468-7.3125-1.003906-10.820313l27.730469-16.011719-19.742188-34.195312-15.832031 9.140625c.945312 5.304687 1.441406 10.769531 1.441406 16.347656 0 44.699219-31.769531 81.96875-73.960937 90.476563.789062.316406 1.585937.621094 2.394531.90625v32.011718h39.484375v-32.011718c6.929687-2.449219 13.261719-6.148438 18.734375-10.832032l27.738281 16.015626 19.746094-34.199219-27.734375-16.007813c.648438-3.511718 1.003906-7.125 1.003906-10.820312zm0 0" fill="#adbbd5"/><path d="m152.992188 379.203125-86.253907 23.957031c-34.964843 9.714844-59.164062 41.554688-59.164062 77.84375v23.421875h412.023437v-23.421875c0-36.289062-24.199218-68.128906-59.167968-77.84375l-86.253907-23.957031zm0 0" fill="#8db0ff"/><path d="m360.429688 403.164062-25.816407-7.171874c29.195313 12.65625 48.628907 41.582031 48.628907 74.097656v34.335937h36.355468v-23.421875c0-36.289062-24.199218-68.128906-59.167968-77.839844zm0 0" fill="#669af7"/><path d="m213.585938 447.875c37.117187 0 67.429687-29.609375 68.613281-66.441406l-8.023438-2.230469h-121.183593l-8.019532 2.230469c1.179688 36.832031 31.496094 66.441406 68.613282 66.441406zm0 0" fill="#669af7"/><path d="m249.941406 344.867188v34.335937c0 20.078125-16.277344 36.355469-36.355468 36.355469-20.078126 0-36.355469-16.277344-36.355469-36.355469v-34.335937zm0 0" fill="#f9b3a7"/><path d="m308.511719 183.289062h26.257812v33.324219h-26.257812zm0 0" fill="#ffd664"/><path d="m92.402344 183.289062h26.253906v33.324219h-26.253906zm0 0" fill="#ffd664"/><path d="m103.511719 271.148438h20.195312v-54.535157h-20.195312c-11.15625 0-20.199219 9.042969-20.199219 20.199219v14.136719c0 11.15625 9.042969 20.199219 20.199219 20.199219zm0 0" fill="#feccc1"/><path d="m323.660156 271.148438h-20.195312v-54.535157h20.195312c11.15625 0 20.195313 9.042969 20.195313 20.199219v14.136719c0 11.15625-9.039063 20.199219-20.195313 20.199219zm0 0" fill="#f9b3a7"/><path d="m213.585938 183.289062h-94.929688v72.710938c0 52.425781 42.5 94.925781 94.929688 94.925781 52.425781 0 94.925781-42.5 94.925781-94.925781v-72.710938zm0 0" fill="#feccc1"/><path d="m280.234375 183.289062v72.710938c0 47.621094-35.066406 87.050781-80.789063 93.878906 4.613282.6875 9.335938 1.046875 14.140626 1.046875 52.425781 0 94.925781-42.5 94.925781-94.925781v-72.710938zm0 0" fill="#f9b3a7"/><path d="m240.902344 95.433594c0-15.066406-12.253906-27.320313-27.316406-27.320313-15.066407 0-27.320313 12.253907-27.320313 27.320313 0 15.0625 12.257813 27.316406 27.320313 27.316406s27.316406-12.253906 27.316406-27.316406zm-27.316406 12.167968c-6.710938 0-12.171876-5.460937-12.171876-12.167968 0-6.710938 5.460938-12.171875 12.171876-12.171875 6.710937 0 12.167968 5.460937 12.167968 12.171875 0 6.707031-5.457031 12.167968-12.167968 12.167968zm0 0"/><path d="m362.457031 395.871094-16.21875-4.507813c-4.035156-1.121093-8.203125 1.242188-9.324219 5.273438-1.117187 4.027343 1.242188 8.203125 5.269532 9.324219l16.222656 4.503906c31.566406 8.761718 53.617188 37.769531 53.617188 70.542968v15.84375h-65.640626v-29.792968c0-4.179688-3.390624-7.574219-7.574218-7.574219s-7.574219 3.394531-7.574219 7.574219v29.792968h-235.296875v-29.792968c0-4.179688-3.390625-7.574219-7.574219-7.574219-4.183593 0-7.574219 3.394531-7.574219 7.574219v29.792968h-65.640624v-15.84375c0-32.773437 22.046874-61.78125 53.621093-70.542968l16.214844-4.503906c4.03125-1.121094 6.390625-5.296876 5.273437-9.324219-1.121093-4.03125-5.296874-6.394531-9.328124-5.273438l-16.214844 4.507813c-38.101563 10.570312-64.714844 45.582031-64.714844 85.136718v23.417969c0 4.183594 3.390625 7.574219 7.574219 7.574219h412.023437c4.183594 0 7.574219-3.390625 7.574219-7.574219v-23.417969c0-39.554687-26.613281-74.566406-64.714844-85.136718zm0 0"/><path d="m84.828125 216.28125c-5.582031 5.085938-9.089844 12.40625-9.089844 20.53125v14.136719c0 15.316406 12.457031 27.773437 27.773438 27.773437h10.113281c7.023438 30.90625 28.050781 56.546875 56.03125 69.875v23.03125h-16.664062c-.683594 0-1.371094.09375-2.03125.277344l-35.964844 9.992188c-4.03125 1.117187-6.390625 5.292968-5.273438 9.324218.929688 3.351563 3.976563 5.546875 7.296875 5.546875.667969 0 1.351563-.089843 2.027344-.277343l19.269531-5.351563c2.550782 16.203125 10.234375 31.132813 22.207032 42.757813 14.3125 13.898437 33.15625 21.550781 53.0625 21.550781 19.902343 0 38.746093-7.652344 53.058593-21.550781 11.972657-11.625 19.660157-26.550782 22.207031-42.757813l19.269532 5.351563c.675781.191406 1.359375.28125 2.03125.28125 3.316406 0 6.363281-2.199219 7.292968-5.550782 1.117188-4.03125-1.242187-8.203125-5.269531-9.324218l-35.96875-9.992188c-.660156-.179688-1.34375-.273438-2.03125-.273438h-16.660156v-23.03125c27.980469-13.328124 49.007813-38.96875 56.027344-69.878906h10.117187c15.3125 0 27.769532-12.457031 27.769532-27.769531v-14.136719c0-8.125-3.507813-15.449218-9.085938-20.53125v-32.996094c0-4.183593-3.394531-7.574218-7.574219-7.574218h-93.867187v-19.316406c4.160156-1.863282 8.109375-4.148438 11.8125-6.832032l23.300781 13.453125c1.738281 1.003907 3.808594 1.277344 5.746094.753907 1.941406-.519532 3.59375-1.789063 4.597656-3.527344l19.746094-34.195313c1.003906-1.742187 1.277343-3.808593.753906-5.75-.519531-1.941406-1.789063-3.59375-3.527344-4.597656l-23.296875-13.453125c.234375-2.28125.355469-4.558594.355469-6.820312 0-2.257813-.121094-4.539063-.355469-6.820313l23.296875-13.453125c1.738281-1.003906 3.007813-2.65625 3.527344-4.597656.523437-1.941406.25-4.007813-.753906-5.746094l-19.746094-34.199219c-1.003906-1.738281-2.65625-3.007812-4.597656-3.527343-1.9375-.523438-4.003907-.25-5.746094.753906l-23.300781 13.453125c-3.703125-2.683594-7.652344-4.96875-11.8125-6.832031v-26.886719c0-4.183594-3.390625-7.574219-7.574219-7.574219h-39.484375c-4.183594 0-7.574219 3.390625-7.574219 7.574219v26.890625c-4.160156 1.863281-8.109375 4.148437-11.8125 6.832031l-23.300781-13.453125c-1.738281-1.003906-3.808594-1.273438-5.746094-.753906-1.941406.519531-3.59375 1.789062-4.597656 3.527344l-19.746094 34.199218c-1.003906 1.738282-1.277344 3.804688-.757812 5.746094.519531 1.941406 1.789062 3.59375 3.53125 4.597656l23.296875 13.453125c-.238281 2.28125-.355469 4.5625-.355469 6.820313 0 2.257812.117188 4.539062.355469 6.820312l-23.296875 13.453125c-1.742188 1.003907-3.011719 2.65625-3.53125 4.597657-.519532 1.941406-.246094 4.007812.757812 5.75l19.746094 34.195312c1.003906 1.738281 2.65625 3.007812 4.597656 3.527344 1.941406.523437 4.007813.25 5.746094-.753906l23.300781-13.453126c3.703125 2.683594 7.652344 4.96875 11.8125 6.832032v19.316406h-15.792969c-4.183593 0-7.574218 3.390625-7.574218 7.574219 0 4.183593 3.390625 7.574219 7.574218 7.574219h130.460938v65.132812c0 48.167969-39.183594 87.351562-87.351562 87.351562-48.167969 0-87.355469-39.183593-87.355469-87.351562v-65.136719h8.964843c4.183594 0 7.574219-3.390625 7.574219-7.574219 0-4.183593-3.390625-7.574218-7.574219-7.574218h-42.792968c-4.183594 0-7.574219 3.390625-7.574219 7.574218zm116.585937-40.566406v-24.4375c0-3.210938-2.023437-6.070313-5.046874-7.140625-5.984376-2.113281-11.476563-5.292969-16.335938-9.449219-2.4375-2.085938-5.929688-2.40625-8.710938-.804688l-21.179687 12.230469-12.167969-21.078125 21.171875-12.226562c2.777344-1.601563 4.246094-4.78125 3.664063-7.933594-.585938-3.15625-.878906-6.332031-.878906-9.445312 0-3.109376.292968-6.285157.878906-9.445313.582031-3.152344-.886719-6.328125-3.664063-7.933594l-21.171875-12.222656 12.167969-21.078125 21.179687 12.226562c2.78125 1.609376 6.273438 1.285157 8.710938-.800781 4.859375-4.15625 10.351562-7.335937 16.335938-9.449219 3.023437-1.070312 5.046874-3.933593 5.046874-7.140624v-24.4375h24.339844v24.4375c0 3.210937 2.023438 6.070312 5.050782 7.140624 5.980468 2.117188 11.476562 5.292969 16.332031 9.449219 2.4375 2.085938 5.929687 2.410157 8.710937.804688l21.179688-12.230469 12.167968 21.078125-21.171874 12.226563c-2.777344 1.601562-4.246094 4.78125-3.660157 7.933593.582031 3.152344.875 6.328125.875 9.445313 0 3.117187-.292969 6.292968-.875 9.441406-.585937 3.15625.882813 6.332031 3.660157 7.9375l21.171874 12.222656-12.167968 21.078125-21.179688-12.226562c-2.78125-1.605469-6.273437-1.285157-8.710937.804687-4.855469 4.152344-10.351563 7.332032-16.332031 9.449219-3.027344 1.070313-5.050782 3.929687-5.050782 7.140625v24.4375h-24.339844zm134.867188 75.234375c0 6.960937-5.660156 12.625-12.621094 12.625h-7.855468c.183593-2.5.28125-5.027344.28125-7.574219v-31.8125h7.574218c6.960938 0 12.621094 5.664062 12.621094 12.625zm-9.085938-41.675781c-1.160156-.148438-2.339843-.234376-3.535156-.234376h-7.574218v-18.175781h11.105468v18.410157zm-53.035156 177.789062c-3.828125 30.289062-29.394531 53.238281-60.574218 53.238281-31.183594 0-56.746094-22.949219-60.578126-53.238281l1.019532-.285156h16.296875c3.601562 20.625 21.621093 36.355468 43.261719 36.355468 21.636718 0 39.660156-15.730468 43.261718-36.355468h16.292969zm-31.792968-32.679688v24.820313c0 15.871094-12.914063 28.78125-28.78125 28.78125-15.871094 0-28.78125-12.910156-28.78125-28.78125v-24.820313c9.132812 2.675782 18.792968 4.117188 28.78125 4.117188 9.988281 0 19.644531-1.441406 28.78125-4.117188zm-138.855469-90.808593c-6.960938 0-12.625-5.664063-12.625-12.625v-14.136719c0-6.960938 5.664062-12.621094 12.625-12.621094h7.574219v31.808594c0 2.546875.09375 5.070312.277343 7.574219zm7.574219-72.710938v18.179688h-7.574219c-1.199219 0-2.378907.085937-3.535157.230469v-18.410157zm0 0"/><path d="m346.515625 161.988281c.988281.433594 2.023437.640625 3.039063.640625 2.914062 0 5.691406-1.691406 6.9375-4.53125 8.703124-19.824218 13.117187-40.90625 13.117187-62.667968 0-21.757813-4.414063-42.839844-13.117187-62.664063-1.679688-3.832031-6.148438-5.574219-9.976563-3.890625-3.832031 1.679688-5.574219 6.148438-3.894531 9.976562 7.855468 17.894532 11.839844 36.929688 11.839844 56.578126 0 19.648437-3.984376 38.683593-11.839844 56.578124-1.679688 3.832032.0625 8.300782 3.894531 9.980469zm0 0"/><path d="m318.773438 149.8125c.992187.433594 2.023437.640625 3.039062.640625 2.914062 0 5.691406-1.691406 6.941406-4.53125 7.003906-15.964844 10.558594-32.949219 10.558594-50.488281 0-17.539063-3.554688-34.527344-10.558594-50.492188-1.683594-3.828125-6.152344-5.570312-9.980468-3.890625-3.832032 1.679688-5.574219 6.148438-3.890626 9.980469 6.15625 14.03125 9.28125 28.96875 9.28125 44.398438 0 15.429687-3.125 30.371093-9.28125 44.402343-1.683593 3.832031.058594 8.300781 3.890626 9.980469zm0 0"/><path d="m77.617188 162.628906c1.015624 0 2.046874-.207031 3.039062-.640625 3.828125-1.679687 5.570312-6.148437 3.890625-9.980469-7.855469-17.890624-11.835937-36.925781-11.835937-56.574218 0-19.652344 3.980468-38.6875 11.835937-56.578125 1.679687-3.832031-.058594-8.296875-3.890625-9.980469-3.832031-1.679688-8.296875.0625-9.980469 3.890625-8.703125 19.824219-13.113281 40.910156-13.113281 62.667969 0 21.757812 4.414062 42.839844 13.113281 62.664062 1.246094 2.839844 4.023438 4.53125 6.941407 4.53125zm0 0"/><path d="m105.355469 150.453125c1.015625 0 2.050781-.207031 3.039062-.640625 3.832031-1.679688 5.574219-6.148438 3.890625-9.980469-6.15625-14.03125-9.28125-28.96875-9.28125-44.398437 0-15.429688 3.125-30.371094 9.28125-44.402344 1.683594-3.828125-.058594-8.296875-3.890625-9.976562-3.828125-1.683594-8.296875.058593-9.976562 3.890624-7.007813 15.960938-10.5625 32.949219-10.5625 50.488282 0 17.539062 3.554687 34.527344 10.5625 50.488281 1.246093 2.839844 4.023437 4.53125 6.9375 4.53125zm0 0"/></svg>